<svg xmlns="http://www.w3.org/2000/svg" xmlns:xlink="http://www.w3.org/1999/xlink" width="500" zoomAndPan="magnify" viewBox="0 0 375 374.999991" height="500" preserveAspectRatio="xMidYMid meet" version="1.2"><defs><clipPath id="ddd8046e57"><path d="M 165 107 L 280.855469 107 L 280.855469 274.394531 L 165 274.394531 Z M 165 107 "/></clipPath><clipPath id="ddd5838022"><path d="M 94.105469 71.144531 L 210 71.144531 L 210 239 L 94.105469 239 Z M 94.105469 71.144531 "/></clipPath></defs><g id="c8801f57b3"><rect x="0" width="375" y="0" height="374.999991" style="fill:#ffffff;fill-opacity:1;stroke:none;"/><rect x="0" width="375" y="0" height="374.999991" style="fill:#000000;fill-opacity:1;stroke:none;"/><g clip-rule="nonzero" clip-path="url(#ddd8046e57)"><path style=" stroke:none;fill-rule:nonzero;fill:#ffffff;fill-opacity:1;" d="M 280.746094 273.605469 C 275.378906 265.050781 270.003906 256.492188 264.621094 247.933594 L 256.546875 235.128906 L 248.445312 222.316406 L 232.210938 196.714844 L 216.984375 172.734375 L 236.589844 143.941406 L 241.753906 136.371094 C 243.480469 133.851562 245.195312 131.324219 246.933594 128.8125 L 257.363281 113.742188 L 261.582031 107.652344 L 205.964844 107.277344 L 204.792969 109.371094 C 203.078125 112.441406 201.402344 115.527344 199.710938 118.605469 L 198.445312 120.921875 L 197.199219 123.246094 L 194.691406 127.882812 L 189.734375 137.1875 L 187.207031 141.988281 C 186.246094 140.523438 185.28125 139.0625 184.316406 137.605469 L 181.359375 133.183594 L 178.375 128.773438 L 175.386719 124.378906 L 172.359375 120 C 170.332031 117.082031 168.273438 114.183594 166.1875 111.304688 C 166.125 111.203125 166.039062 111.136719 165.921875 111.105469 C 165.808594 111.078125 165.699219 111.089844 165.59375 111.152344 C 165.492188 111.210938 165.425781 111.300781 165.394531 111.414062 C 165.363281 111.53125 165.378906 111.640625 165.441406 111.742188 C 166.957031 114.953125 168.511719 118.144531 170.113281 121.316406 L 172.503906 126.070312 L 174.933594 130.8125 L 177.375 135.539062 L 179.84375 140.25 C 181.503906 143.378906 183.160156 146.515625 184.84375 149.636719 L 187.277344 154.136719 L 190.167969 149.597656 C 192.058594 146.632812 193.902344 143.648438 195.765625 140.671875 L 201.3125 131.710938 L 204.066406 127.214844 L 205.4375 124.976562 L 206.800781 122.734375 C 208.179688 120.453125 209.558594 118.179688 210.925781 115.894531 C 212.015625 115.894531 245.265625 115.765625 246.585938 115.742188 L 240.871094 124.8125 C 239.25 127.402344 237.59375 129.964844 235.957031 132.542969 L 231.023438 140.261719 L 211.261719 171.128906 L 210.230469 172.734375 L 211.261719 174.226562 L 228.394531 199.234375 L 245.5625 224.21875 L 254.148438 236.703125 L 262.761719 249.171875 C 268.5 257.5 274.261719 265.804688 280.039062 274.09375 C 280.105469 274.1875 280.195312 274.246094 280.308594 274.269531 C 280.421875 274.292969 280.527344 274.273438 280.625 274.207031 C 280.722656 274.144531 280.78125 274.054688 280.804688 273.941406 C 280.828125 273.824219 280.808594 273.71875 280.746094 273.621094 Z M 280.746094 273.605469 "/></g><g clip-rule="nonzero" clip-path="url(#ddd5838022)"><path style=" stroke:none;fill-rule:nonzero;fill:#ffffff;fill-opacity:1;" d="M 204.878906 224.042969 L 202.484375 219.28125 L 200.0625 214.546875 L 197.613281 209.820312 L 195.148438 205.109375 C 193.488281 201.976562 191.832031 198.839844 190.144531 195.722656 L 187.714844 191.21875 L 184.824219 195.761719 C 182.933594 198.722656 181.089844 201.710938 179.222656 204.6875 L 173.671875 213.648438 L 170.925781 218.144531 L 169.550781 220.382812 L 168.191406 222.625 C 166.816406 224.90625 165.445312 227.1875 164.085938 229.464844 C 162.996094 229.464844 129.746094 229.597656 128.417969 229.621094 L 134.121094 220.546875 C 135.746094 217.960938 137.398438 215.394531 139.039062 212.816406 L 143.972656 205.09375 L 163.734375 174.230469 L 164.761719 172.625 L 163.734375 171.132812 L 146.601562 146.175781 L 129.429688 121.246094 L 120.847656 108.785156 L 112.222656 96.34375 C 106.492188 88.039062 100.734375 79.753906 94.953125 71.484375 C 94.890625 71.390625 94.800781 71.332031 94.691406 71.308594 C 94.578125 71.285156 94.476562 71.304688 94.378906 71.363281 C 94.28125 71.425781 94.21875 71.515625 94.191406 71.628906 C 94.164062 71.742188 94.183594 71.851562 94.242188 71.949219 C 99.617188 80.496094 104.992188 89.035156 110.367188 97.570312 L 118.441406 110.371094 L 126.546875 123.148438 L 142.773438 148.703125 L 158.007812 172.628906 L 138.410156 201.421875 L 133.25 208.992188 C 131.523438 211.507812 129.8125 214.039062 128.070312 216.550781 L 117.640625 231.617188 L 113.425781 237.710938 L 169.042969 238.082031 L 170.21875 235.972656 C 171.929688 232.902344 173.609375 229.816406 175.296875 226.738281 L 176.5625 224.421875 L 177.816406 222.105469 L 180.324219 217.46875 L 185.257812 208.175781 L 187.78125 203.378906 L 190.675781 207.753906 L 193.632812 212.175781 L 196.617188 216.585938 L 199.605469 220.984375 L 202.632812 225.363281 C 204.65625 228.28125 206.714844 231.175781 208.804688 234.050781 C 208.871094 234.140625 208.957031 234.195312 209.0625 234.21875 C 209.171875 234.238281 209.269531 234.222656 209.363281 234.164062 C 209.460938 234.109375 209.523438 234.03125 209.554688 233.925781 C 209.585938 233.820312 209.578125 233.71875 209.53125 233.621094 C 208.03125 230.417969 206.476562 227.222656 204.878906 224.042969 Z M 204.878906 224.042969 "/></g><g style="fill:#ffffff;fill-opacity:1;"><g transform="translate(124.612958, 286.959075)"><path style="stroke:none" d="M 1.171875 -9.734375 L 2.15625 -9.734375 L 2.15625 -5.65625 L 7.109375 -5.65625 L 7.109375 -9.734375 L 8.09375 -9.734375 L 8.09375 0 L 7.109375 0 L 7.109375 -4.703125 L 2.15625 -4.703125 L 2.15625 0 L 1.171875 0 Z M 1.171875 -9.734375 "/></g></g><g style="fill:#ffffff;fill-opacity:1;"><g transform="translate(144.706842, 286.959075)"><path style="stroke:none" d="M 1.171875 -9.734375 L 6.734375 -9.734375 L 6.734375 -8.796875 L 2.15625 -8.796875 L 2.15625 -5.71875 L 6.734375 -5.71875 L 6.734375 -4.796875 L 2.15625 -4.796875 L 2.15625 -0.953125 L 6.734375 -0.953125 L 6.734375 0 L 1.171875 0 Z M 1.171875 -9.734375 "/></g></g><g style="fill:#ffffff;fill-opacity:1;"><g transform="translate(162.796187, 286.959075)"><path style="stroke:none" d="M 3.5625 -5.015625 L 0.671875 -9.734375 L 1.8125 -9.734375 L 4.140625 -5.9375 L 6.484375 -9.734375 L 7.609375 -9.734375 L 4.71875 -5.015625 L 7.796875 0 L 6.671875 0 L 4.140625 -4.078125 L 1.59375 0 L 0.453125 0 Z M 3.5625 -5.015625 "/></g></g><g style="fill:#ffffff;fill-opacity:1;"><g transform="translate(181.887802, 286.959075)"><path style="stroke:none" d="M 8.328125 0 L 6.84375 -3.203125 L 2.578125 -3.203125 L 1.078125 0 L 0.0625 0 L 4.609375 -9.734375 L 4.84375 -9.734375 L 9.34375 0 Z M 3 -4.125 L 6.40625 -4.125 L 4.71875 -7.765625 Z M 3 -4.125 "/></g></g><g style="fill:#ffffff;fill-opacity:1;"><g transform="translate(202.144214, 286.959075)"><path style="stroke:none" d="M 3.578125 -9.734375 C 4.804688 -9.734375 5.851562 -9.546875 6.71875 -9.171875 C 7.582031 -8.796875 8.242188 -8.234375 8.703125 -7.484375 C 9.160156 -6.742188 9.390625 -5.832031 9.390625 -4.75 C 9.390625 -3.195312 8.945312 -2.015625 8.0625 -1.203125 C 7.1875 -0.398438 5.84375 0 4.03125 0 L 1.171875 0 L 1.171875 -9.734375 Z M 4.03125 -0.953125 C 5.445312 -0.953125 6.523438 -1.257812 7.265625 -1.875 C 8.003906 -2.488281 8.375 -3.441406 8.375 -4.734375 C 8.375 -6.128906 7.953125 -7.148438 7.109375 -7.796875 C 6.273438 -8.453125 5.097656 -8.78125 3.578125 -8.78125 L 2.15625 -8.78125 L 2.15625 -0.953125 Z M 4.03125 -0.953125 "/></g></g><g style="fill:#ffffff;fill-opacity:1;"><g transform="translate(223.132016, 286.959075)"><path style="stroke:none" d="M 1.171875 -9.734375 L 6.734375 -9.734375 L 6.734375 -8.796875 L 2.15625 -8.796875 L 2.15625 -5.71875 L 6.734375 -5.71875 L 6.734375 -4.796875 L 2.15625 -4.796875 L 2.15625 -0.953125 L 6.734375 -0.953125 L 6.734375 0 L 1.171875 0 Z M 1.171875 -9.734375 "/></g></g><g style="fill:#ffffff;fill-opacity:1;"><g transform="translate(241.221361, 286.959075)"><path style="stroke:none" d="M 0.453125 -9.734375 L 1.5 -9.734375 L 4.734375 -2.203125 L 8 -9.734375 L 9.0625 -9.734375 L 4.84375 0 L 4.625 0 Z M 0.453125 -9.734375 "/></g></g></g></svg>